<svg width="266" height="266" viewBox="0 0 266 266" fill="none" xmlns="http://www.w3.org/2000/svg">
<rect width="265.11" height="265.11" fill="#FFFEF0"/>
<mask id="mask0_2_58" style="mask-type:alpha" maskUnits="userSpaceOnUse" x="0" y="0" width="266" height="266">
<rect width="265.11" height="265.11" fill="#D9D9D9"/>
</mask>
<g mask="url(#mask0_2_58)">
<mask id="mask1_2_58" style="mask-type:luminance" maskUnits="userSpaceOnUse" x="-107" y="79" width="480" height="259">
<path d="M-107 79H373V337.667H-107V79Z" fill="white"/>
</mask>
<g mask="url(#mask1_2_58)">
<mask id="mask2_2_58" style="mask-type:luminance" maskUnits="userSpaceOnUse" x="-264" y="32" width="658" height="363">
<path d="M-229.87 32.4219L393.068 103.698L359.76 394.797L-263.177 323.521L-229.87 32.4219Z" fill="white"/>
</mask>
<g mask="url(#mask2_2_58)">
<mask id="mask3_2_58" style="mask-type:luminance" maskUnits="userSpaceOnUse" x="-264" y="32" width="658" height="363">
<path d="M-229.87 32.4219L393.068 103.698L359.76 394.797L-263.177 323.521L-229.87 32.4219Z" fill="white"/>
</mask>
<g mask="url(#mask3_2_58)">
<path fill-rule="evenodd" clip-rule="evenodd" d="M137.417 208.224C126.109 178.958 113.635 152.651 78.2812 141.38C31.2865 126.302 -14.1354 158.781 -28.276 199.38C-29.8073 203.75 -37.1719 228.401 -33.2135 230.818C-30.6146 232.453 50.3333 226.854 57.9219 226.38C82.2292 225.031 109.62 223.828 133.76 221.224C144.422 220.073 141.146 218.047 137.417 208.224ZM65.6354 312.318C57.0312 312.677 47.9792 312.365 39.5417 313.047C61.3958 320.505 103.771 309.25 76.875 311.542C73.125 311.833 69.4792 312.141 65.6354 312.318ZM160.609 278.901C117.312 330.719 48.3958 344.823 -11.1771 307.969C-38.2708 291.245 -15.5729 308.495 -6.07812 313.917C54.9531 348.875 139.188 328.062 169.885 267.266C175.208 256.833 161.688 277.583 160.609 278.901ZM182.172 215.823C201.417 209.146 182.406 199.333 170.771 201.823C159.677 204.062 157.766 201.781 152.104 191.74C138.896 168.24 134.943 154.057 107.859 139.089C49.401 106.906 -15.1667 138.021 -33.0625 195.219C-39.8958 217.047 -22.1302 179.026 -21.2396 177.583C2.46875 137.25 53.8229 122.375 97.4427 145.328C137.172 166.182 129.615 208.776 157.323 216.49C165.729 218.792 173.786 217.854 182.172 215.823ZM372.464 204.562C335.688 219.245 261.844 220.5 219.984 224.589C175.812 229.031 188.938 253.24 166.323 283.068C108.828 358.859 -3.57812 353.432 -51.7917 273.182C-68.0208 246.344 -68.75 243.677 -105 246.552C-109.385 246.979 -171.286 253.005 -165.677 244.562C-163.422 241.104 -168.115 242.427 -172.281 242.776C-172.599 242.844 -254.745 249.854 -223.094 243.875C-197.563 239.057 -135.417 239.042 -119.807 234.328C-110.922 231.526 -175.786 237.318 -133.193 229.495C-123.49 227.714 -90.4427 221.276 -84.4323 214.734C-84.8021 214.385 -130.396 230.328 -134.563 227.062C-134.313 226.682 -116.406 219.026 -113.411 217.203C-70.5417 191.656 -74.3438 125.672 1.9427 91.3594C59.2969 65.5104 128.854 84.6146 166.318 129.776C184.104 151.115 191.292 174.026 206.458 193.932C226.375 220.156 381.911 200.484 372.464 204.562ZM131.12 233.516C108.068 234.698 85.3385 237.568 61.5729 238.667C50.474 239.151 -31.099 241.172 -35.2031 246.38C-40.1354 252.526 -17.0417 269 -12 271.849C35.4115 298.641 101.224 300.802 135.875 254.187C142.323 245.635 151.062 233.323 134.005 233.536L131.12 233.516ZM-25.1719 126.24C-43.1719 134.714 -68.349 177.042 -70.776 194.62C-71.9688 203.26 -53.401 162.755 -51.5885 159.552C-45.7344 148.974 -26.1354 130.156 -24.5625 126.312L-25.1719 126.24ZM97.6562 103.755C88.2083 96.9948 51.2656 96.901 39.0208 98.3854C23.724 100.354 -7.39584 110.729 29.9427 103.75C59.4844 98.151 59.75 100.349 88.7865 103.667C89.9115 103.797 97.2083 104.943 97.6562 103.755Z" fill="black"/>
</g>
</g>
</g>
</g>
</svg>
