<svg width="34" height="33" viewBox="0 0 34 33" fill="none" xmlns="http://www.w3.org/2000/svg">
<g clip-path="url(#clip0_56_2)">
<mask id="mask0_56_2" style="mask-type:luminance" maskUnits="userSpaceOnUse" x="7" y="7" width="27" height="26">
<path d="M30.2353 7.6911L27.5975 11.744C28.4042 13.323 28.8617 15.1084 28.8617 17.0001C28.8617 23.4313 23.6081 28.6441 17.1265 28.6441C15.2221 28.6441 13.425 28.1912 11.8357 27.393L7.75 30.0135C10.3921 31.8912 13.6285 33 17.1265 33C26.0324 33 33.2528 25.8368 33.2528 17.0002C33.2528 13.5261 32.132 10.3116 30.2364 7.68896L30.2353 7.6911Z" fill="white"/>
</mask>
<g mask="url(#mask0_56_2)">
<path d="M19.5133 -4.92578L-4.96655 21.3243L21.489 45.6136L45.9689 19.3636L19.5133 -4.92578Z" fill="white"/>
</g>
<mask id="mask1_56_2" style="mask-type:luminance" maskUnits="userSpaceOnUse" x="10" y="18" width="16" height="8">
<path d="M10.4072 21.4659C11.8629 23.6064 14.3288 25.0138 17.1263 25.0138C21.0971 25.0138 24.397 22.1794 25.0887 18.4393C23.8333 18.1722 22.5309 18.0288 21.1945 18.0288C17.169 18.0288 13.4466 19.3048 10.4072 21.4659Z" fill="white"/>
</mask>
<g mask="url(#mask1_56_2)">
<path d="M17.1788 10.7661L6.89746 21.791L18.3162 32.2747L28.5976 21.2499L17.1788 10.7661Z" fill="white"/>
</g>
<path d="M21.1179 16.5664C22.5276 16.5664 23.9012 16.7196 25.2255 17.003V17.0008C25.2255 12.5624 21.5994 8.96347 17.1263 8.96347C12.6531 8.96347 9.02701 12.5624 9.02701 17.0008C9.02701 17.3646 9.05329 17.723 9.10145 18.0749L9.09926 18.076C7.05913 19.6137 6.0916 20.8311 6.06205 20.8702C5.62974 19.6593 5.39004 18.3583 5.39004 17.0008C5.39004 10.5697 10.6447 5.35584 17.1263 5.35584C19.0242 5.35584 20.8148 5.80654 22.4007 6.5993L26.4897 3.97774C23.8486 2.10555 20.6188 1 17.1263 1C8.22038 1 1 8.1642 1 17.0009C1 20.5575 2.17113 23.8414 4.14995 26.4967C4.91501 25.1273 5.84312 23.861 6.90807 22.7229C6.90807 22.7229 8.49835 21.0755 9.71764 20.248C12.9168 17.9348 16.8559 16.5664 21.1179 16.5664Z" fill="white"/>
<path d="M21.1179 16.5664C22.5276 16.5664 23.9012 16.7196 25.2255 17.003V17.0008C25.2255 12.5624 21.5994 8.96347 17.1263 8.96347C12.6531 8.96347 9.02701 12.5624 9.02701 17.0008C9.02701 17.3646 9.05329 17.723 9.10145 18.0749L9.09926 18.076C7.05913 19.6137 6.0916 20.8311 6.06205 20.8702C5.62974 19.6593 5.39004 18.3583 5.39004 17.0008C5.39004 10.5697 10.6447 5.35584 17.1263 5.35584C19.0242 5.35584 20.8148 5.80654 22.4007 6.5993L26.4897 3.97774C23.8486 2.10555 20.6188 1 17.1263 1C8.22038 1 1 8.1642 1 17.0009C1 20.5575 2.17113 23.8414 4.14995 26.4967C4.91501 25.1273 5.84312 23.861 6.90807 22.7229C6.90807 22.7229 8.49835 21.0755 9.71764 20.248C12.9168 17.9348 16.8559 16.5664 21.1179 16.5664Z" stroke="white" stroke-width="0.226" stroke-miterlimit="10"/>
</g>
<defs>
<clipPath id="clip0_56_2">
<rect width="34" height="33" fill="white"/>
</clipPath>
</defs>
</svg>
